<mxfile host="app.diagrams.net" modified="2024-01-04T03:55:49.247Z" agent="Mozilla/5.0 (Macintosh; Intel Mac OS X 10_15_7) AppleWebKit/537.36 (KHTML, like Gecko) Chrome/120.0.0.0 Safari/537.36" etag="EjrMO92qPGjZbztyYaG1" version="21.2.1" type="device">
  <diagram name="Page-1" id="DJp533JkNdx8iLrz-kKB">
    <mxGraphModel dx="946" dy="761" grid="1" gridSize="10" guides="1" tooltips="1" connect="1" arrows="1" fold="1" page="1" pageScale="1" pageWidth="850" pageHeight="1100" math="0" shadow="0">
      <root>
        <mxCell id="0" />
        <mxCell id="1" parent="0" />
        <mxCell id="-W_FH8Zwf040irhO-eN7-2" value="" style="rounded=1;whiteSpace=wrap;html=1;fillColor=none;" vertex="1" parent="1">
          <mxGeometry x="60" y="80" width="610" height="470" as="geometry" />
        </mxCell>
        <mxCell id="-W_FH8Zwf040irhO-eN7-1" value="MYSQL" style="shape=cylinder3;whiteSpace=wrap;html=1;boundedLbl=1;backgroundOutline=1;size=15;" vertex="1" parent="1">
          <mxGeometry x="100" y="275" width="60" height="80" as="geometry" />
        </mxCell>
        <mxCell id="-W_FH8Zwf040irhO-eN7-11" style="edgeStyle=orthogonalEdgeStyle;rounded=0;orthogonalLoop=1;jettySize=auto;html=1;exitX=0.5;exitY=1;exitDx=0;exitDy=0;entryX=1;entryY=0.25;entryDx=0;entryDy=0;startArrow=classic;startFill=1;" edge="1" parent="1" source="-W_FH8Zwf040irhO-eN7-4" target="-W_FH8Zwf040irhO-eN7-5">
          <mxGeometry relative="1" as="geometry" />
        </mxCell>
        <mxCell id="-W_FH8Zwf040irhO-eN7-4" value="Coruscan Console" style="rounded=1;whiteSpace=wrap;html=1;" vertex="1" parent="1">
          <mxGeometry x="490" y="150" width="120" height="60" as="geometry" />
        </mxCell>
        <mxCell id="-W_FH8Zwf040irhO-eN7-12" style="edgeStyle=orthogonalEdgeStyle;rounded=0;orthogonalLoop=1;jettySize=auto;html=1;exitX=0;exitY=0.5;exitDx=0;exitDy=0;entryX=1;entryY=0.5;entryDx=0;entryDy=0;entryPerimeter=0;startArrow=classic;startFill=1;" edge="1" parent="1" source="-W_FH8Zwf040irhO-eN7-5" target="-W_FH8Zwf040irhO-eN7-1">
          <mxGeometry relative="1" as="geometry" />
        </mxCell>
        <mxCell id="-W_FH8Zwf040irhO-eN7-5" value="Endor API" style="rounded=1;whiteSpace=wrap;html=1;" vertex="1" parent="1">
          <mxGeometry x="250" y="285" width="120" height="60" as="geometry" />
        </mxCell>
        <mxCell id="-W_FH8Zwf040irhO-eN7-7" style="edgeStyle=orthogonalEdgeStyle;rounded=0;orthogonalLoop=1;jettySize=auto;html=1;exitX=0.5;exitY=0;exitDx=0;exitDy=0;entryX=1;entryY=0.75;entryDx=0;entryDy=0;startArrow=classic;startFill=1;" edge="1" parent="1" source="-W_FH8Zwf040irhO-eN7-6" target="-W_FH8Zwf040irhO-eN7-5">
          <mxGeometry relative="1" as="geometry" />
        </mxCell>
        <mxCell id="-W_FH8Zwf040irhO-eN7-6" value="Coruscan Console" style="rounded=1;whiteSpace=wrap;html=1;" vertex="1" parent="1">
          <mxGeometry x="490" y="410" width="120" height="60" as="geometry" />
        </mxCell>
      </root>
    </mxGraphModel>
  </diagram>
</mxfile>
